<svg xmlns="http://www.w3.org/2000/svg" width="44.369" height="38.152" viewBox="0 0 44.369 38.152"><path d="M1.583,3.167h47.5a1.583,1.583,0,1,0,0-3.167H1.583a1.583,1.583,0,1,0,0,3.167Z" transform="translate(0 35.828) rotate(-45)" fill="#fef200"/><path d="M49.086,0H1.583a1.583,1.583,0,0,0,0,3.167h47.5a1.583,1.583,0,0,0,0-3.167Z" transform="translate(2.239 0.084) rotate(45)" fill="#fef200"/><path d="M153.555,264.667H121.886a1.583,1.583,0,0,0,0,3.167h31.668a1.583,1.583,0,0,0,0-3.167Z" transform="translate(-110.769 -236.048)" fill="#fef200" opacity="0"/></svg>