<svg xmlns="http://www.w3.org/2000/svg" width="50.669" height="25.335" viewBox="0 0 50.669 25.335"><path d="M1.583,99.41h47.5a1.583,1.583,0,1,0,0-3.167H1.583a1.583,1.583,0,1,0,0,3.167Z" transform="translate(0 -96.243)" fill="#fef200"/><path d="M49.086,180.455H1.583a1.583,1.583,0,0,0,0,3.167h47.5a1.583,1.583,0,0,0,0-3.167Z" transform="translate(0 -169.371)" fill="#fef200"/><path d="M153.555,264.667H121.886a1.583,1.583,0,0,0,0,3.167h31.668a1.583,1.583,0,0,0,0-3.167Z" transform="translate(-104.469 -242.499)" fill="#fef200"/></svg>