<svg xmlns="http://www.w3.org/2000/svg" width="34.875" height="34.875" viewBox="0 0 34.875 34.875"><g transform="translate(0 0)"><circle cx="15" cy="15" r="15" transform="translate(2.913 2.438)" fill="#fef200"/><path d="M17.438,0A17.438,17.438,0,1,1,0,17.438,17.434,17.434,0,0,1,17.438,0ZM15.405,10.1l5.309,5.091H7.875a1.683,1.683,0,0,0-1.687,1.688V18a1.683,1.683,0,0,0,1.688,1.688H20.714l-5.309,5.091a1.689,1.689,0,0,0-.028,2.412l.773.766a1.681,1.681,0,0,0,2.384,0l9.33-9.323a1.681,1.681,0,0,0,0-2.384l-9.33-9.337a1.681,1.681,0,0,0-2.384,0l-.773.766a1.7,1.7,0,0,0,.028,2.419Z" transform="translate(0 0)" fill="#222165"/></g></svg>