<svg xmlns="http://www.w3.org/2000/svg" width="22" height="22" viewBox="0 0 22 22"><g transform="translate(1.473 1)"><rect width="20" height="20" transform="translate(-0.473)" fill="rgba(253,73,198,0.35)" opacity="0"/><g transform="translate(0 0)"><path d="M5-1H15a6.007,6.007,0,0,1,6,6V15a6.007,6.007,0,0,1-6,6H5a6.007,6.007,0,0,1-6-6V5A6.007,6.007,0,0,1,5-1ZM15,19a4,4,0,0,0,4-4V5a4,4,0,0,0-4-4H5A4,4,0,0,0,1,5V15a4,4,0,0,0,4,4Z" transform="translate(-0.473 -0.001)" fill="#fff"/><path d="M12.042,6.957a5.028,5.028,0,0,1,.735.054,5,5,0,0,1,1.515,9.412,5.022,5.022,0,0,1-2.247.534,5,5,0,1,1,0-10Zm0,8a3,3,0,0,0,2.966-3.44,2.981,2.981,0,0,0-2.527-2.527,3.021,3.021,0,0,0-.442-.033,3,3,0,0,0,0,6Z" transform="translate(-2 -2)" fill="#fff"/><path d="M.01,1H0A1,1,0,0,1-1,0,1,1,0,0,1,0-1H.01a1,1,0,0,1,1,1A1,1,0,0,1,.01,1Z" transform="translate(15.5 4.5)" fill="#fff"/></g></g></svg>