<svg xmlns="http://www.w3.org/2000/svg" width="80.307" height="35.722" viewBox="0 0 80.307 35.722"><g transform="translate(40.154 17.861)"><g transform="translate(-40.154 -17.861)"><path d="M103.8,21.65c-.824,0-1.7.17-1.7,2.182v17.2c0,2.011.88,2.182,1.7,2.182s1.7-.17,1.7-2.182v-17.2C105.508,21.82,104.628,21.65,103.8,21.65Zm.978,19.379c0,1.452-.409,1.452-.978,1.452s-.978,0-.978-1.452v-17.2c0-1.452.409-1.452.978-1.452s.978,0,.978,1.452Z" transform="translate(-68.707 -14.569)" fill="#fff"/><path d="M161.794,21.65c-.824,0-1.7.17-1.7,2.182v17.2c0,2.011.88,2.182,1.7,2.182s1.7-.17,1.7-2.182v-17.2C163.5,21.82,162.618,21.65,161.794,21.65Zm.978,19.379c0,1.452-.409,1.452-.978,1.452s-.978,0-.978-1.452v-17.2c0-1.452.409-1.452.978-1.452s.978,0,.978,1.452Z" transform="translate(-107.73 -14.569)" fill="#fff"/><path d="M35.1,0c-3.454,0-6.077,1.276-7.63,3.581L28.942.448H20.183L16.536,8.294V.451H8.275V4.134H7.712V.641H3.751V4.134H0V8.706H3.751v3.5H7.712v-3.5h.563V35.274h8.262V28.327l3.555,6.947h8.762L20.559,18.231,26.371,5.9a12.355,12.355,0,0,0-.517,3.676V26.146c0,6,3.454,9.576,9.24,9.576s9.24-3.581,9.24-9.576V9.576c0-6-3.454-9.576-9.24-9.576ZM6.9,7.9v3.5H4.563V7.9H.811V4.945H4.563V1.452H6.9V4.945h3.761V7.9H6.9ZM19.755,18.237l7.938,16.311H20.54l-4.726-9.236v9.236H9.007V8.687l1.763-.6V4.821H9.007V1.177h6.806V11.591L20.648,1.177H27.8l-8.043,17.06Zm23.856,7.912c0,5.626-3.1,8.85-8.513,8.85s-8.513-3.225-8.513-8.85V9.576c0-5.626,3.1-8.85,8.513-8.85s8.513,3.225,8.513,8.85V26.146Z" fill="#fff"/><path d="M203.3,28.392V1.38H195.04V36.2h16.517v-7.81Zm-7.536,7.081V2.106h6.806V29.118h8.255v6.355H195.763Z" transform="translate(-131.249 -0.929)" fill="#fff"/><path d="M146.29,0c-5.786,0-9.24,3.581-9.24,9.576V26.146c0,6,3.454,9.576,9.24,9.576s9.24-3.581,9.24-9.576V9.576C155.529,3.578,152.075,0,146.29,0ZM154.8,26.146c0,5.626-3.1,8.85-8.513,8.85s-8.513-3.225-8.513-8.85V9.576c0-5.626,3.1-8.85,8.513-8.85s8.513,3.225,8.513,8.85Z" transform="translate(-92.226)" fill="#fff"/><path d="M47.328,10.34h-2.2L36.659,27.272V10.34H34.69V39.3h1.969V31.7l2.371-4.752L45.071,39.3h2.1L40.145,24.721Z" transform="translate(-23.344 -6.958)" fill="#fff"/><path d="M215.9,37.82h-9.027V10.34H204.91V39.851H215.9Z" transform="translate(-137.891 -6.958)" fill="#fff"/><path d="M159.139,33.459V13.57c0-.049-.069-5.04-6.09-5.04s-6.129,4.988-6.129,5.04V33.459c0,.049.069,5.04,6.09,5.04S159.139,33.511,159.139,33.459Zm-6.129,3.006c-3.957,0-4.118-2.692-4.121-3.009V13.57c0-.124.046-3.009,4.16-3.009s4.118,2.7,4.121,3.009V33.459C157.17,33.583,157.124,36.465,153.01,36.465Z" transform="translate(-98.868 -5.74)" fill="#fff"/><path d="M101.149,33.459V13.57c0-.049-.069-5.04-6.09-5.04s-6.129,4.988-6.129,5.04V33.459c0,.049.069,5.04,6.09,5.04S101.149,33.511,101.149,33.459ZM95.02,36.465c-3.961,0-4.118-2.692-4.121-3.009V13.57c0-.124.046-3.009,4.16-3.009s4.118,2.7,4.121,3.009V33.459C99.18,33.583,99.134,36.465,95.02,36.465Z" transform="translate(-59.844 -5.74)" fill="#fff"/><path d="M9.466,10.7V6.93H8.72V10.7H5.06v.782H8.72v3.768h.746V11.479h3.761V10.7Z" transform="translate(-3.405 -4.663)" fill="#fff"/></g></g></svg>