<svg xmlns="http://www.w3.org/2000/svg" width="24.371" height="24.371" viewBox="0 0 24.371 24.371"><g transform="translate(0)"><rect width="24.371" height="24.371" fill="rgba(253,73,198,0.35)" opacity="0"/><g transform="translate(0 2.308)"><path d="M14.494,4.615a57.311,57.311,0,0,0-8.554.679A3.809,3.809,0,0,0,2.805,8.443a35.463,35.463,0,0,0-.5,6.051,35.446,35.446,0,0,0,.5,6.049,3.8,3.8,0,0,0,3.134,3.149,57.449,57.449,0,0,0,8.554.679,57.445,57.445,0,0,0,8.553-.679,3.8,3.8,0,0,0,3.134-3.149,35.524,35.524,0,0,0,.5-6.049,35.178,35.178,0,0,0-.5-6.051,3.807,3.807,0,0,0-3.134-3.149A57.307,57.307,0,0,0,14.494,4.615Zm0,1.976a56.1,56.1,0,0,1,8.29.648,1.891,1.891,0,0,1,1.552,1.574,33.224,33.224,0,0,1,.468,5.68,33.274,33.274,0,0,1-.468,5.68,1.883,1.883,0,0,1-1.552,1.574,56.644,56.644,0,0,1-8.29.648,56.569,56.569,0,0,1-8.29-.648,1.885,1.885,0,0,1-1.552-1.574,33.05,33.05,0,0,1-.469-5.68,33,33,0,0,1,.469-5.68A1.886,1.886,0,0,1,6.2,7.24,56.031,56.031,0,0,1,14.494,6.591ZM11.681,8.845v11.3l1.406-.833,6.561-3.951,1.406-.864-1.406-.864L13.087,9.678Zm1.874,3.4,3.72,2.254-3.72,2.252Z" transform="translate(-2.308 -4.615)" fill="#fff"/></g></g></svg>